<?xml version="1.0" encoding="UTF-8"?>
<!DOCTYPE svg PUBLIC "-//W3C//DTD SVG 1.1//EN" "http://www.w3.org/Graphics/SVG/1.1/DTD/svg11.dtd">
<!-- Creator: CorelDRAW (OEM Version) -->
<svg xmlns="http://www.w3.org/2000/svg" xml:space="preserve" width="285.067mm" height="285.067mm" version="1.1" style="shape-rendering:geometricPrecision; text-rendering:geometricPrecision; image-rendering:optimizeQuality; fill-rule:evenodd; clip-rule:evenodd"
viewBox="0 0 5740.55 5740.55"
 xmlns:xlink="http://www.w3.org/1999/xlink"
 xmlns:xodm="http://www.corel.com/coreldraw/odm/2003">
 <defs>
  <style type="text/css">
   <![CDATA[
    .str0 {stroke:#373435;stroke-width:3.55;stroke-miterlimit:22.9256}
    .fil1 {fill:none}
    .fil0 {fill:#F58634}
   ]]>
  </style>
 </defs>
 <g id="Layer_x0020_1">
  <metadata id="CorelCorpID_0Corel-Layer"/>
  <path class="fil0" d="M2590.61 1984.78c364.16,-373.41 902.42,-474.33 1360.59,-299.58l675.95 -693.11c-851.26,-512.53 -1973.15,-393.51 -2696.95,348.64l-1878.91 1926.6 1289.76 -16.16c76.72,436.68 286.3,854.23 627.96,1187.43 866.17,844.74 2253.15,827.36 3097.89,-38.82 744.65,-763.56 819.38,-1931.82 233.24,-2776.58l-665.57 682.46c233.19,469.16 158.44,1053.76 -228.07,1450.07 -489.06,501.46 -1291.99,511.52 -1793.45,22.46 -158.64,-154.7 -268.09,-340.82 -328.13,-538.86 -129.74,-428.01 -28.66,-911.73 305.68,-1254.56z"/>
  <rect class="fil1 str0" x="1.77" y="1.78" width="5737" height="5737"/>
 </g>
</svg>
