<?xml version="1.0" encoding="UTF-8"?>
<!DOCTYPE svg PUBLIC "-//W3C//DTD SVG 1.1//EN" "http://www.w3.org/Graphics/SVG/1.1/DTD/svg11.dtd">
<!-- Creator: CorelDRAW (OEM Version) -->
<svg xmlns="http://www.w3.org/2000/svg" xml:space="preserve" width="270.666mm" height="53.8748mm" version="1.1" style="shape-rendering:geometricPrecision; text-rendering:geometricPrecision; image-rendering:optimizeQuality; fill-rule:evenodd; clip-rule:evenodd"
viewBox="0 0 26207.09 5216.41"
 xmlns:xlink="http://www.w3.org/1999/xlink"
 xmlns:xodm="http://www.corel.com/coreldraw/odm/2003">
 <defs>
  <style type="text/css">
   <![CDATA[
    .fil1 {fill:#F58634}
    .fil0 {fill:#FEFEFE;fill-rule:nonzero}
   ]]>
  </style>
 </defs>
 <g id="Layer_x0020_1">
  <metadata id="CorelCorpID_0Corel-Layer"/>
  <g id="_2701171669184">
   <path class="fil0" d="M10534.45 3781.68c253.06,-206.66 406.63,-491.6 460.72,-854.77l-840.27 0c-30.93,154.52 -99.5,276.23 -205.71,365.11 -106.26,88.85 -238.58,133.26 -396.98,133.26 -212.48,0 -382.48,-79.18 -509.97,-237.58 -127.48,-158.41 -191.22,-365.11 -191.22,-620.07 0,-255 63.74,-461.66 191.22,-620.06 127.49,-158.41 297.48,-237.59 509.97,-237.59 154.52,0 283.95,43.44 388.27,130.37 104.33,86.94 173.85,203.78 208.61,350.61l846.09 0c-57.96,-359.32 -212.48,-640.37 -463.61,-843.2 -251.12,-202.82 -575.65,-304.21 -973.58,-304.21 -309.04,0 -580.43,62.75 -814.18,188.33 -233.74,125.54 -413.4,303.26 -538.95,533.13 -125.54,229.86 -188.33,497.42 -188.33,802.62 0,301.33 62.79,567.93 188.33,799.69 125.54,231.81 304.25,410.52 536.06,536.06 231.8,125.58 502.2,188.33 811.28,188.33 401.81,0 729.22,-103.33 982.25,-310.03zm2714.97 -2703.37l-139.08 0c-220.21,0 -395.99,37.66 -527.36,112.99 -131.32,75.34 -241.46,186.39 -330.3,333.23l-75.34 -446.23 -741.77 0 0 2978.64 817.11 0 0 -1460.35c0,-239.51 54.08,-428.85 162.28,-567.92 108.16,-139.08 278.13,-208.6 509.93,-208.6l324.53 0 0 -741.77zm339.01 686.7c-125.54,229.86 -188.33,499.35 -188.33,808.4 0,305.21 64.7,572.77 194.11,802.63 129.43,229.86 314.86,406.63 556.33,530.23 241.46,123.65 528.33,185.45 860.58,185.45 254.97,0 480.99,-45.37 678.03,-136.19 197,-90.78 355.4,-215.38 475.17,-373.77 119.76,-158.41 195.1,-336.09 226.02,-533.14l-805.51 0c-34.76,139.09 -107.2,244.36 -217.31,315.82 -110.1,71.5 -248.23,107.2 -414.35,107.2 -208.61,0 -372.82,-61.79 -492.59,-185.44 -119.76,-123.61 -189.28,-293.6 -208.61,-509.97l0 -23.16 2161.53 0c15.48,-81.12 23.2,-173.85 23.2,-278.17 -3.87,-289.76 -70.51,-541.84 -199.93,-756.26 -129.42,-214.43 -309.08,-380.55 -538.95,-498.37 -229.86,-117.83 -495.47,-176.73 -796.8,-176.73 -297.48,0 -559.22,62.75 -785.25,188.33 -226.02,125.54 -401.8,303.26 -527.35,533.13zm2031.16 454.9l-1350.24 0c23.16,-173.85 95.61,-311.94 217.31,-414.32 121.71,-102.38 271.4,-153.57 449.12,-153.57 185.44,0 339.01,49.25 460.71,147.75 121.71,98.54 196.06,238.58 223.09,420.14zm1263.3 -2219.5l0 4056.54 817.11 0 0 -4056.54 -817.11 0zm1964.53 1077.9l-869.25 0 1147.42 2996.02 -75.35 197.04c-42.52,100.45 -86.94,168.07 -133.3,202.83 -46.36,34.76 -121.7,52.14 -225.98,52.14l-452.04 0 0 689.62 793.94 0c150.65,0 273.34,-26.08 367.96,-78.22 94.66,-52.18 172.89,-129.43 234.73,-231.81 61.8,-102.38 127.48,-244.35 197,-425.95l1321.3 -3401.67 -875.07 0 -707 2138.37 -724.35 -2138.37zm3175.64 1987.69l-776.52 0c15.47,316.8 152.61,566.94 411.46,750.44 258.85,183.54 594.97,275.27 1008.34,275.27 266.56,0 501.25,-39.59 704.08,-118.77 202.82,-79.22 361.22,-192.22 475.21,-339.01 113.98,-146.81 170.95,-316.81 170.95,-509.97 0,-305.21 -107.21,-520.58 -321.63,-646.16 -214.43,-125.54 -522.52,-211.53 -924.29,-257.89 -189.32,-19.29 -324.53,-36.71 -405.69,-52.15 -81.12,-15.43 -146.81,-40.58 -197,-75.34 -50.24,-34.76 -75.35,-86.9 -75.35,-156.46 0,-96.56 47.32,-173.84 141.97,-231.81 94.67,-57.96 219.26,-86.9 373.78,-86.9 166.12,0 302.32,35.71 408.53,107.18 106.26,71.5 165.17,163.23 176.77,275.27l776.53 0c-19.33,-301.33 -153.57,-537.01 -402.76,-706.97 -249.18,-169.99 -576.59,-256.93 -982.24,-260.78 -251.12,0 -473.27,40.54 -666.43,121.7 -193.2,81.12 -342.89,196.05 -449.11,344.79 -106.26,148.74 -159.39,319.7 -159.39,512.86 0,193.17 52.18,347.69 156.46,463.61 104.32,115.88 243.41,200.88 417.25,254.97 173.88,54.12 392.15,98.54 654.86,133.3 193.17,23.16 332.25,43.47 417.25,60.85 84.96,17.38 150.65,45.37 197.01,84.01 46.36,38.64 69.56,96.6 69.56,173.89 0,104.28 -50.24,184.45 -150.68,240.47 -100.45,56.02 -237.59,84.01 -411.47,84.01 -181.57,0 -330.31,-40.55 -446.19,-121.67 -115.92,-81.16 -179.67,-187.38 -191.27,-318.74zm2654.16 -1298.1l0 1437.18c0,567.92 283.95,851.87 851.87,851.87l677.99 0 0 -689.63 -423.03 0c-104.32,0 -178.67,-23.16 -223.09,-69.52 -44.42,-46.36 -66.67,-121.7 -66.67,-226.02l0 -1303.88 678.03 0 0 -689.59 -678.03 0 0 -834.49 -817.07 0 0 834.49 -492.59 0 0 689.59 492.59 0z"/>
   <path class="fil1" d="M3023.26 1553.96c433.57,-444.57 1074.4,-564.73 1619.9,-356.67l804.78 -825.21c-1013.5,-610.21 -2349.2,-468.51 -3210.95,415.09l-2237 2293.77 1535.57 -19.23c91.34,519.9 340.86,1017.03 747.64,1413.73 1031.24,1005.74 2682.55,985.05 3688.28,-46.21 886.57,-909.08 975.54,-2299.98 277.69,-3305.75l-792.41 812.52c277.63,558.57 188.64,1254.59 -271.53,1726.43 -582.26,597.03 -1538.21,609.01 -2135.24,26.74 -188.88,-184.18 -319.19,-405.77 -390.67,-641.56 -154.47,-509.58 -34.13,-1085.49 363.92,-1493.65z"/>
  </g>
 </g>
</svg>
